%TF.GenerationSoftware,KiCad,Pcbnew,8.0.5*%
%TF.CreationDate,2024-11-01T20:02:56+05:30*%
%TF.ProjectId,ESP32 with sensor,45535033-3220-4776-9974-682073656e73,rev?*%
%TF.SameCoordinates,Original*%
%TF.FileFunction,Copper,L2,Bot*%
%TF.FilePolarity,Positive*%
%FSLAX46Y46*%
G04 Gerber Fmt 4.6, Leading zero omitted, Abs format (unit mm)*
G04 Created by KiCad (PCBNEW 8.0.5) date 2024-11-01 20:02:56*
%MOMM*%
%LPD*%
G01*
G04 APERTURE LIST*
%TA.AperFunction,HeatsinkPad*%
%ADD10C,0.600000*%
%TD*%
%TA.AperFunction,ViaPad*%
%ADD11C,0.600000*%
%TD*%
%TA.AperFunction,Conductor*%
%ADD12C,0.200000*%
%TD*%
%TA.AperFunction,Conductor*%
%ADD13C,0.300000*%
%TD*%
G04 APERTURE END LIST*
D10*
%TO.P,U1,39,GND*%
%TO.N,GND*%
X130767880Y-121627880D03*
X130767880Y-120227880D03*
X130067880Y-122327880D03*
X130067880Y-120927880D03*
X130067880Y-119527880D03*
X129342880Y-121627880D03*
X129342880Y-120227880D03*
X128667880Y-122327880D03*
X128667880Y-120927880D03*
X128667880Y-119527880D03*
X127967880Y-121627880D03*
X127967880Y-120227880D03*
%TD*%
D11*
%TO.N,GND*%
X127830000Y-117970000D03*
X138617880Y-152400000D03*
X133867880Y-155867880D03*
X130117880Y-161367880D03*
%TO.N,/RESET*%
X125086630Y-137899130D03*
X137842880Y-154617880D03*
%TO.N,Net-(J1-D-)*%
X130367880Y-176117880D03*
X130022880Y-147867880D03*
%TO.N,Net-(J1-D+)*%
X131867880Y-176117880D03*
X128752880Y-147867880D03*
%TO.N,/SDA*%
X138000000Y-119500000D03*
%TO.N,/SCL*%
X138002120Y-115747880D03*
%TO.N,/UART_RX*%
X126212880Y-143907777D03*
X137967880Y-117017880D03*
%TO.N,/UART_TX*%
X124942880Y-144867880D03*
X138000000Y-118287880D03*
%TO.N,/SDA*%
X133617880Y-151867880D03*
%TO.N,/SCL*%
X133617880Y-153367880D03*
%TD*%
D12*
%TO.N,GND*%
X129367880Y-121627880D02*
X130067880Y-122327880D01*
X129342880Y-121627880D02*
X129367880Y-121627880D01*
X128667880Y-120927880D02*
X127967880Y-120227880D01*
X128667880Y-120927880D02*
X127967880Y-121627880D01*
X129342880Y-121652880D02*
X128667880Y-122327880D01*
X129342880Y-121627880D02*
X129342880Y-121652880D01*
X130042880Y-120927880D02*
X129342880Y-121627880D01*
X130067880Y-120927880D02*
X130042880Y-120927880D01*
X130067880Y-120927880D02*
X130767880Y-120227880D01*
X129367880Y-120227880D02*
X130067880Y-119527880D01*
X129342880Y-120227880D02*
X129367880Y-120227880D01*
X130067880Y-120927880D02*
X130767880Y-121627880D01*
X129367880Y-120227880D02*
X130067880Y-120927880D01*
X128667880Y-119552880D02*
X129342880Y-120227880D01*
X128667880Y-119527880D02*
X128667880Y-119552880D01*
X127830000Y-118690000D02*
X128667880Y-119527880D01*
X127830000Y-117970000D02*
X127830000Y-118690000D01*
X138617880Y-152400000D02*
X138617880Y-154691409D01*
D13*
%TO.N,/UART_TX*%
X127200000Y-129087880D02*
X138000000Y-118287880D01*
X127200000Y-143839896D02*
X127200000Y-129087880D01*
X126172016Y-144867880D02*
X127200000Y-143839896D01*
X124942880Y-144867880D02*
X126172016Y-144867880D01*
%TO.N,/UART_RX*%
X126212880Y-143907777D02*
X126212880Y-128772880D01*
X126212880Y-128772880D02*
X137967880Y-117017880D01*
D12*
%TO.N,GND*%
X130067880Y-119527880D02*
X130042880Y-119527880D01*
X138617880Y-152367880D02*
X138617880Y-152400000D01*
X129342880Y-120227880D02*
X129342880Y-120252880D01*
X137441409Y-155867880D02*
X133867880Y-155867880D01*
X138617880Y-154691409D02*
X137441409Y-155867880D01*
X130067880Y-122327880D02*
X130042880Y-122327880D01*
X130767880Y-120227880D02*
X130067880Y-119527880D01*
X133867880Y-155867880D02*
X133867880Y-157617880D01*
X133867880Y-157617880D02*
X130117880Y-161367880D01*
%TO.N,Net-(J1-D-)*%
X129422880Y-147267880D02*
X128504351Y-147267880D01*
X128152880Y-173902880D02*
X130367880Y-176117880D01*
X128504351Y-147267880D02*
X128152880Y-147619351D01*
X128152880Y-147619351D02*
X128152880Y-173902880D01*
X130022880Y-147867880D02*
X129422880Y-147267880D01*
%TO.N,Net-(J1-D+)*%
X128752880Y-173002880D02*
X128752880Y-147867880D01*
X131867880Y-176117880D02*
X128752880Y-173002880D01*
D13*
%TO.N,/UART_RX*%
X126212880Y-143907777D02*
X126327983Y-143907777D01*
%TO.N,/SDA*%
X138000000Y-147485760D02*
X138000000Y-119500000D01*
X133617880Y-151867880D02*
X138000000Y-147485760D01*
%TO.N,/SCL*%
X138650000Y-116395760D02*
X138002120Y-115747880D01*
X138650000Y-148335760D02*
X138650000Y-116395760D01*
X133617880Y-153367880D02*
X138650000Y-148335760D01*
%TO.N,/RESET*%
X124117880Y-138867880D02*
X125086630Y-137899130D01*
X132967880Y-153637119D02*
X132967880Y-149893641D01*
X128592119Y-145517880D02*
X124673641Y-145517880D01*
X133948641Y-154617880D02*
X132967880Y-153637119D01*
X132967880Y-149893641D02*
X128592119Y-145517880D01*
X137842880Y-154617880D02*
X133948641Y-154617880D01*
X124673641Y-145517880D02*
X124117880Y-144962119D01*
X124117880Y-144962119D02*
X124117880Y-138867880D01*
%TD*%
%TA.AperFunction,Conductor*%
%TO.N,GND*%
G36*
X142310419Y-111927565D02*
G01*
X142356174Y-111980369D01*
X142367380Y-112031880D01*
X142367380Y-182493380D01*
X142347695Y-182560419D01*
X142294891Y-182606174D01*
X142243380Y-182617380D01*
X119492380Y-182617380D01*
X119425341Y-182597695D01*
X119379586Y-182544891D01*
X119368380Y-182493380D01*
X119368380Y-145026190D01*
X123467379Y-145026190D01*
X123492377Y-145151857D01*
X123492379Y-145151863D01*
X123541414Y-145270244D01*
X123612606Y-145376792D01*
X124258967Y-146023153D01*
X124258970Y-146023155D01*
X124258972Y-146023157D01*
X124365514Y-146094345D01*
X124483897Y-146143381D01*
X124483901Y-146143381D01*
X124483902Y-146143382D01*
X124609569Y-146168380D01*
X124609572Y-146168380D01*
X124737710Y-146168380D01*
X128271311Y-146168380D01*
X128338350Y-146188065D01*
X128358992Y-146204699D01*
X128609992Y-146455699D01*
X128643477Y-146517022D01*
X128638493Y-146586714D01*
X128596621Y-146642647D01*
X128531157Y-146667064D01*
X128522311Y-146667380D01*
X128425294Y-146667380D01*
X128272566Y-146708303D01*
X128272565Y-146708303D01*
X128272563Y-146708304D01*
X128272560Y-146708305D01*
X128222447Y-146737239D01*
X128222446Y-146737240D01*
X128179040Y-146762300D01*
X128135636Y-146787359D01*
X128135633Y-146787361D01*
X127672361Y-147250633D01*
X127672359Y-147250636D01*
X127646161Y-147296014D01*
X127646160Y-147296016D01*
X127593303Y-147387565D01*
X127593303Y-147387566D01*
X127552379Y-147540294D01*
X127552379Y-147540296D01*
X127552379Y-147708397D01*
X127552380Y-147708410D01*
X127552380Y-173816210D01*
X127552379Y-173816228D01*
X127552379Y-173981934D01*
X127552378Y-173981934D01*
X127593303Y-174134665D01*
X127622238Y-174184780D01*
X127622239Y-174184784D01*
X127622240Y-174184784D01*
X127672359Y-174271594D01*
X127672361Y-174271597D01*
X127791229Y-174390465D01*
X127791235Y-174390470D01*
X129537178Y-176136413D01*
X129570663Y-176197736D01*
X129572717Y-176210210D01*
X129582510Y-176297129D01*
X129642090Y-176467401D01*
X129722874Y-176595967D01*
X129738064Y-176620142D01*
X129865618Y-176747696D01*
X130018358Y-176843669D01*
X130188625Y-176903248D01*
X130188630Y-176903249D01*
X130367876Y-176923445D01*
X130367880Y-176923445D01*
X130367884Y-176923445D01*
X130547129Y-176903249D01*
X130547132Y-176903248D01*
X130547135Y-176903248D01*
X130717402Y-176843669D01*
X130870142Y-176747696D01*
X130997696Y-176620142D01*
X131012887Y-176595964D01*
X131065219Y-176549676D01*
X131134273Y-176539026D01*
X131198122Y-176567401D01*
X131222870Y-176595962D01*
X131238064Y-176620142D01*
X131365618Y-176747696D01*
X131518358Y-176843669D01*
X131688625Y-176903248D01*
X131688630Y-176903249D01*
X131867876Y-176923445D01*
X131867880Y-176923445D01*
X131867884Y-176923445D01*
X132047129Y-176903249D01*
X132047132Y-176903248D01*
X132047135Y-176903248D01*
X132217402Y-176843669D01*
X132370142Y-176747696D01*
X132497696Y-176620142D01*
X132593669Y-176467402D01*
X132653248Y-176297135D01*
X132663042Y-176210210D01*
X132673445Y-176117883D01*
X132673445Y-176117876D01*
X132653249Y-175938630D01*
X132653248Y-175938625D01*
X132593668Y-175768356D01*
X132497695Y-175615617D01*
X132370142Y-175488064D01*
X132217401Y-175392090D01*
X132047129Y-175332510D01*
X131960210Y-175322717D01*
X131895796Y-175295650D01*
X131886413Y-175287178D01*
X129389699Y-172790464D01*
X129356214Y-172729141D01*
X129353380Y-172702783D01*
X129353380Y-148616974D01*
X129373065Y-148549935D01*
X129425869Y-148504180D01*
X129495027Y-148494236D01*
X129543351Y-148511980D01*
X129581073Y-148535682D01*
X129673355Y-148593668D01*
X129843625Y-148653248D01*
X129843630Y-148653249D01*
X130022876Y-148673445D01*
X130022880Y-148673445D01*
X130022884Y-148673445D01*
X130202129Y-148653249D01*
X130202132Y-148653248D01*
X130202135Y-148653248D01*
X130372402Y-148593669D01*
X130519312Y-148501358D01*
X130586548Y-148482359D01*
X130653384Y-148502727D01*
X130672965Y-148518672D01*
X132281061Y-150126768D01*
X132314546Y-150188091D01*
X132317380Y-150214449D01*
X132317380Y-153701188D01*
X132337515Y-153802410D01*
X132342154Y-153825733D01*
X132342379Y-153826863D01*
X132386576Y-153933565D01*
X132391415Y-153945246D01*
X132420025Y-153988064D01*
X132462606Y-154051792D01*
X133533966Y-155123152D01*
X133533972Y-155123157D01*
X133640515Y-155194346D01*
X133709862Y-155223069D01*
X133758897Y-155243381D01*
X133758900Y-155243381D01*
X133758901Y-155243382D01*
X133884569Y-155268380D01*
X133884572Y-155268380D01*
X133884573Y-155268380D01*
X134012710Y-155268380D01*
X137337812Y-155268380D01*
X137403784Y-155287386D01*
X137493357Y-155343669D01*
X137493361Y-155343670D01*
X137663617Y-155403246D01*
X137663623Y-155403247D01*
X137663625Y-155403248D01*
X137663626Y-155403248D01*
X137663630Y-155403249D01*
X137842876Y-155423445D01*
X137842880Y-155423445D01*
X137842884Y-155423445D01*
X138022129Y-155403249D01*
X138022132Y-155403248D01*
X138022135Y-155403248D01*
X138192402Y-155343669D01*
X138345142Y-155247696D01*
X138472696Y-155120142D01*
X138568669Y-154967402D01*
X138628248Y-154797135D01*
X138648445Y-154617880D01*
X138628248Y-154438625D01*
X138568669Y-154268358D01*
X138472696Y-154115618D01*
X138345142Y-153988064D01*
X138281976Y-153948374D01*
X138192403Y-153892091D01*
X138022134Y-153832511D01*
X138022129Y-153832510D01*
X137842884Y-153812315D01*
X137842876Y-153812315D01*
X137663630Y-153832510D01*
X137663617Y-153832513D01*
X137493361Y-153892089D01*
X137493357Y-153892090D01*
X137403784Y-153948374D01*
X137337812Y-153967380D01*
X134410959Y-153967380D01*
X134343920Y-153947695D01*
X134298165Y-153894891D01*
X134288221Y-153825733D01*
X134305965Y-153777408D01*
X134343668Y-153717403D01*
X134343669Y-153717402D01*
X134403248Y-153547135D01*
X134404062Y-153539905D01*
X134431125Y-153475491D01*
X134439592Y-153466112D01*
X139155276Y-148750430D01*
X139220210Y-148653249D01*
X139226464Y-148643889D01*
X139226465Y-148643887D01*
X139275501Y-148525504D01*
X139276918Y-148518380D01*
X139300500Y-148399829D01*
X139300500Y-116331691D01*
X139300500Y-116331688D01*
X139275502Y-116206021D01*
X139275501Y-116206020D01*
X139275501Y-116206016D01*
X139226465Y-116087633D01*
X139155277Y-115981091D01*
X139155275Y-115981089D01*
X139155273Y-115981086D01*
X139155272Y-115981085D01*
X138823842Y-115649656D01*
X138790357Y-115588333D01*
X138788302Y-115575853D01*
X138787488Y-115568625D01*
X138727909Y-115398358D01*
X138631936Y-115245618D01*
X138504382Y-115118064D01*
X138351643Y-115022091D01*
X138181374Y-114962511D01*
X138181369Y-114962510D01*
X138002124Y-114942315D01*
X138002116Y-114942315D01*
X137822870Y-114962510D01*
X137822865Y-114962511D01*
X137652596Y-115022091D01*
X137499857Y-115118064D01*
X137372304Y-115245617D01*
X137276331Y-115398356D01*
X137216751Y-115568625D01*
X137216750Y-115568630D01*
X137196555Y-115747876D01*
X137196555Y-115747883D01*
X137216750Y-115927129D01*
X137216751Y-115927134D01*
X137276331Y-116097403D01*
X137372304Y-116250142D01*
X137400240Y-116278078D01*
X137433725Y-116339401D01*
X137428741Y-116409093D01*
X137400242Y-116453439D01*
X137338063Y-116515619D01*
X137242090Y-116668358D01*
X137182512Y-116838624D01*
X137182510Y-116838632D01*
X137181695Y-116845868D01*
X137154623Y-116910280D01*
X137146157Y-116919655D01*
X125707606Y-128358206D01*
X125654706Y-128437379D01*
X125654704Y-128437381D01*
X125636419Y-128464744D01*
X125636413Y-128464755D01*
X125587379Y-128583135D01*
X125587377Y-128583141D01*
X125562380Y-128708808D01*
X125562380Y-137042748D01*
X125542695Y-137109787D01*
X125489891Y-137155542D01*
X125420733Y-137165486D01*
X125397425Y-137159789D01*
X125265892Y-137113763D01*
X125265879Y-137113760D01*
X125086634Y-137093565D01*
X125086626Y-137093565D01*
X124907380Y-137113760D01*
X124907375Y-137113761D01*
X124737106Y-137173341D01*
X124584367Y-137269314D01*
X124456814Y-137396867D01*
X124360840Y-137549608D01*
X124301262Y-137719874D01*
X124301260Y-137719882D01*
X124300445Y-137727118D01*
X124273373Y-137791530D01*
X124264907Y-137800905D01*
X123612606Y-138453206D01*
X123548180Y-138549629D01*
X123548177Y-138549633D01*
X123541417Y-138559748D01*
X123541413Y-138559755D01*
X123492379Y-138678135D01*
X123492377Y-138678141D01*
X123467380Y-138803808D01*
X123467380Y-138803811D01*
X123467380Y-145026188D01*
X123467380Y-145026190D01*
X123467379Y-145026190D01*
X119368380Y-145026190D01*
X119368380Y-123044540D01*
X128304772Y-123044540D01*
X128304772Y-123044541D01*
X128318572Y-123053213D01*
X128318571Y-123053213D01*
X128488741Y-123112758D01*
X128667877Y-123132942D01*
X128667883Y-123132942D01*
X128847018Y-123112758D01*
X128847021Y-123112757D01*
X129017185Y-123053214D01*
X129017186Y-123053214D01*
X129030986Y-123044541D01*
X129030986Y-123044540D01*
X129704772Y-123044540D01*
X129704772Y-123044541D01*
X129718572Y-123053213D01*
X129718571Y-123053213D01*
X129888741Y-123112758D01*
X130067877Y-123132942D01*
X130067883Y-123132942D01*
X130247018Y-123112758D01*
X130247021Y-123112757D01*
X130417185Y-123053214D01*
X130417186Y-123053214D01*
X130430986Y-123044541D01*
X130430986Y-123044540D01*
X130067881Y-122681433D01*
X130067880Y-122681433D01*
X129704772Y-123044540D01*
X129030986Y-123044540D01*
X128667881Y-122681433D01*
X128667880Y-122681433D01*
X128304772Y-123044540D01*
X119368380Y-123044540D01*
X119368380Y-122344540D01*
X127604772Y-122344540D01*
X127604772Y-122344541D01*
X127618572Y-122353213D01*
X127618571Y-122353213D01*
X127788742Y-122412758D01*
X127789524Y-122412937D01*
X127789977Y-122413190D01*
X127795311Y-122415057D01*
X127794984Y-122415991D01*
X127850503Y-122447046D01*
X127879832Y-122500754D01*
X127880702Y-122500450D01*
X127882550Y-122505732D01*
X127882820Y-122506226D01*
X127883001Y-122507022D01*
X127942543Y-122677180D01*
X127942543Y-122677181D01*
X127951218Y-122690987D01*
X128314326Y-122327880D01*
X128284489Y-122298043D01*
X128517880Y-122298043D01*
X128517880Y-122357717D01*
X128540716Y-122412848D01*
X128582912Y-122455044D01*
X128638043Y-122477880D01*
X128697717Y-122477880D01*
X128752848Y-122455044D01*
X128795044Y-122412848D01*
X128817880Y-122357717D01*
X128817880Y-122327880D01*
X129021433Y-122327880D01*
X129367880Y-122674326D01*
X129367881Y-122674326D01*
X129701826Y-122340381D01*
X129701826Y-122340379D01*
X129659490Y-122298043D01*
X129917880Y-122298043D01*
X129917880Y-122357717D01*
X129940716Y-122412848D01*
X129982912Y-122455044D01*
X130038043Y-122477880D01*
X130097717Y-122477880D01*
X130152848Y-122455044D01*
X130195044Y-122412848D01*
X130217880Y-122357717D01*
X130217880Y-122327879D01*
X130421433Y-122327879D01*
X130421433Y-122327880D01*
X130784540Y-122690986D01*
X130784541Y-122690986D01*
X130793214Y-122677186D01*
X130793214Y-122677185D01*
X130852756Y-122507024D01*
X130852936Y-122506238D01*
X130853191Y-122505781D01*
X130855057Y-122500450D01*
X130855990Y-122500776D01*
X130887044Y-122445259D01*
X130940755Y-122415929D01*
X130940450Y-122415057D01*
X130945750Y-122413202D01*
X130946238Y-122412936D01*
X130947024Y-122412756D01*
X131117185Y-122353214D01*
X131117186Y-122353214D01*
X131130986Y-122344541D01*
X131130986Y-122344540D01*
X130767880Y-121981433D01*
X130702120Y-122047194D01*
X130702119Y-122047194D01*
X130421433Y-122327879D01*
X130217880Y-122327879D01*
X130217880Y-122298043D01*
X130195044Y-122242912D01*
X130152848Y-122200716D01*
X130097717Y-122177880D01*
X130038043Y-122177880D01*
X129982912Y-122200716D01*
X129940716Y-122242912D01*
X129917880Y-122298043D01*
X129659490Y-122298043D01*
X129355381Y-121993933D01*
X129355380Y-121993933D01*
X129021433Y-122327880D01*
X128817880Y-122327880D01*
X128817880Y-122298043D01*
X128795044Y-122242912D01*
X128752848Y-122200716D01*
X128697717Y-122177880D01*
X128638043Y-122177880D01*
X128582912Y-122200716D01*
X128540716Y-122242912D01*
X128517880Y-122298043D01*
X128284489Y-122298043D01*
X127967879Y-121981433D01*
X127967878Y-121981433D01*
X127604772Y-122344540D01*
X119368380Y-122344540D01*
X119368380Y-121627877D01*
X127162818Y-121627877D01*
X127162818Y-121627882D01*
X127183001Y-121807018D01*
X127242545Y-121977184D01*
X127251218Y-121990987D01*
X127614326Y-121627880D01*
X127614326Y-121627879D01*
X127584490Y-121598043D01*
X127817880Y-121598043D01*
X127817880Y-121657717D01*
X127840716Y-121712848D01*
X127882912Y-121755044D01*
X127938043Y-121777880D01*
X127997717Y-121777880D01*
X128052848Y-121755044D01*
X128095044Y-121712848D01*
X128117880Y-121657717D01*
X128117880Y-121627879D01*
X128321433Y-121627879D01*
X128655380Y-121961826D01*
X128989326Y-121627880D01*
X128989326Y-121627879D01*
X128959490Y-121598043D01*
X129192880Y-121598043D01*
X129192880Y-121657717D01*
X129215716Y-121712848D01*
X129257912Y-121755044D01*
X129313043Y-121777880D01*
X129372717Y-121777880D01*
X129427848Y-121755044D01*
X129470044Y-121712848D01*
X129492880Y-121657717D01*
X129492880Y-121627879D01*
X129721433Y-121627879D01*
X129721433Y-121627881D01*
X130067878Y-121974326D01*
X130067879Y-121974326D01*
X130341458Y-121700748D01*
X130414326Y-121627880D01*
X130384489Y-121598043D01*
X130617880Y-121598043D01*
X130617880Y-121657717D01*
X130640716Y-121712848D01*
X130682912Y-121755044D01*
X130738043Y-121777880D01*
X130797717Y-121777880D01*
X130852848Y-121755044D01*
X130895044Y-121712848D01*
X130917880Y-121657717D01*
X130917880Y-121627880D01*
X131121433Y-121627880D01*
X131484540Y-121990986D01*
X131484541Y-121990986D01*
X131493214Y-121977186D01*
X131493214Y-121977185D01*
X131552757Y-121807021D01*
X131552758Y-121807018D01*
X131572942Y-121627882D01*
X131572942Y-121627877D01*
X131552758Y-121448741D01*
X131493213Y-121278572D01*
X131484541Y-121264772D01*
X131484540Y-121264772D01*
X131121433Y-121627880D01*
X130917880Y-121627880D01*
X130917880Y-121598043D01*
X130895044Y-121542912D01*
X130852848Y-121500716D01*
X130797717Y-121477880D01*
X130738043Y-121477880D01*
X130682912Y-121500716D01*
X130640716Y-121542912D01*
X130617880Y-121598043D01*
X130384489Y-121598043D01*
X130067879Y-121281433D01*
X130067878Y-121281433D01*
X129721433Y-121627879D01*
X129492880Y-121627879D01*
X129492880Y-121598043D01*
X129470044Y-121542912D01*
X129427848Y-121500716D01*
X129372717Y-121477880D01*
X129313043Y-121477880D01*
X129257912Y-121500716D01*
X129215716Y-121542912D01*
X129192880Y-121598043D01*
X128959490Y-121598043D01*
X128655380Y-121293933D01*
X128602121Y-121347193D01*
X128602120Y-121347194D01*
X128321433Y-121627879D01*
X128117880Y-121627879D01*
X128117880Y-121598043D01*
X128095044Y-121542912D01*
X128052848Y-121500716D01*
X127997717Y-121477880D01*
X127938043Y-121477880D01*
X127882912Y-121500716D01*
X127840716Y-121542912D01*
X127817880Y-121598043D01*
X127584490Y-121598043D01*
X127251218Y-121264771D01*
X127251217Y-121264771D01*
X127242547Y-121278571D01*
X127242542Y-121278581D01*
X127183002Y-121448738D01*
X127183001Y-121448741D01*
X127162818Y-121627877D01*
X119368380Y-121627877D01*
X119368380Y-120927879D01*
X127621433Y-120927879D01*
X127621433Y-120927881D01*
X127967878Y-121274326D01*
X127967879Y-121274326D01*
X128243749Y-120998457D01*
X128314326Y-120927880D01*
X128284489Y-120898043D01*
X128517880Y-120898043D01*
X128517880Y-120957717D01*
X128540716Y-121012848D01*
X128582912Y-121055044D01*
X128638043Y-121077880D01*
X128697717Y-121077880D01*
X128752848Y-121055044D01*
X128795044Y-121012848D01*
X128817880Y-120957717D01*
X128817880Y-120927880D01*
X129021433Y-120927880D01*
X129355380Y-121261826D01*
X129355381Y-121261826D01*
X129689326Y-120927881D01*
X129689326Y-120927879D01*
X129659490Y-120898043D01*
X129917880Y-120898043D01*
X129917880Y-120957717D01*
X129940716Y-121012848D01*
X129982912Y-121055044D01*
X130038043Y-121077880D01*
X130097717Y-121077880D01*
X130152848Y-121055044D01*
X130195044Y-121012848D01*
X130217880Y-120957717D01*
X130217880Y-120927879D01*
X130421433Y-120927879D01*
X130767880Y-121274326D01*
X131114326Y-120927880D01*
X131114326Y-120927879D01*
X130767880Y-120581433D01*
X130702120Y-120647194D01*
X130702119Y-120647194D01*
X130421433Y-120927879D01*
X130217880Y-120927879D01*
X130217880Y-120898043D01*
X130195044Y-120842912D01*
X130152848Y-120800716D01*
X130097717Y-120777880D01*
X130038043Y-120777880D01*
X129982912Y-120800716D01*
X129940716Y-120842912D01*
X129917880Y-120898043D01*
X129659490Y-120898043D01*
X129355381Y-120593933D01*
X129355380Y-120593933D01*
X129021433Y-120927880D01*
X128817880Y-120927880D01*
X128817880Y-120898043D01*
X128795044Y-120842912D01*
X128752848Y-120800716D01*
X128697717Y-120777880D01*
X128638043Y-120777880D01*
X128582912Y-120800716D01*
X128540716Y-120842912D01*
X128517880Y-120898043D01*
X128284489Y-120898043D01*
X127967879Y-120581433D01*
X127967878Y-120581433D01*
X127621433Y-120927879D01*
X119368380Y-120927879D01*
X119368380Y-120227877D01*
X127162818Y-120227877D01*
X127162818Y-120227882D01*
X127183001Y-120407018D01*
X127242545Y-120577184D01*
X127251218Y-120590987D01*
X127614326Y-120227880D01*
X127614326Y-120227879D01*
X127584490Y-120198043D01*
X127817880Y-120198043D01*
X127817880Y-120257717D01*
X127840716Y-120312848D01*
X127882912Y-120355044D01*
X127938043Y-120377880D01*
X127997717Y-120377880D01*
X128052848Y-120355044D01*
X128095044Y-120312848D01*
X128117880Y-120257717D01*
X128117880Y-120227879D01*
X128321433Y-120227879D01*
X128655380Y-120561826D01*
X128989326Y-120227880D01*
X128989326Y-120227879D01*
X128959490Y-120198043D01*
X129192880Y-120198043D01*
X129192880Y-120257717D01*
X129215716Y-120312848D01*
X129257912Y-120355044D01*
X129313043Y-120377880D01*
X129372717Y-120377880D01*
X129427848Y-120355044D01*
X129470044Y-120312848D01*
X129492880Y-120257717D01*
X129492880Y-120227879D01*
X129721433Y-120227879D01*
X129721433Y-120227881D01*
X130067878Y-120574326D01*
X130067879Y-120574326D01*
X130341458Y-120300748D01*
X130414326Y-120227880D01*
X130384489Y-120198043D01*
X130617880Y-120198043D01*
X130617880Y-120257717D01*
X130640716Y-120312848D01*
X130682912Y-120355044D01*
X130738043Y-120377880D01*
X130797717Y-120377880D01*
X130852848Y-120355044D01*
X130895044Y-120312848D01*
X130917880Y-120257717D01*
X130917880Y-120227880D01*
X131121433Y-120227880D01*
X131484540Y-120590986D01*
X131484541Y-120590986D01*
X131493214Y-120577186D01*
X131493214Y-120577185D01*
X131552757Y-120407021D01*
X131552758Y-120407018D01*
X131572942Y-120227882D01*
X131572942Y-120227877D01*
X131552758Y-120048741D01*
X131493213Y-119878572D01*
X131484541Y-119864772D01*
X131484540Y-119864772D01*
X131121433Y-120227880D01*
X130917880Y-120227880D01*
X130917880Y-120198043D01*
X130895044Y-120142912D01*
X130852848Y-120100716D01*
X130797717Y-120077880D01*
X130738043Y-120077880D01*
X130682912Y-120100716D01*
X130640716Y-120142912D01*
X130617880Y-120198043D01*
X130384489Y-120198043D01*
X130067879Y-119881433D01*
X130067878Y-119881433D01*
X129721433Y-120227879D01*
X129492880Y-120227879D01*
X129492880Y-120198043D01*
X129470044Y-120142912D01*
X129427848Y-120100716D01*
X129372717Y-120077880D01*
X129313043Y-120077880D01*
X129257912Y-120100716D01*
X129215716Y-120142912D01*
X129192880Y-120198043D01*
X128959490Y-120198043D01*
X128655380Y-119893933D01*
X128602121Y-119947193D01*
X128602120Y-119947194D01*
X128321433Y-120227879D01*
X128117880Y-120227879D01*
X128117880Y-120198043D01*
X128095044Y-120142912D01*
X128052848Y-120100716D01*
X127997717Y-120077880D01*
X127938043Y-120077880D01*
X127882912Y-120100716D01*
X127840716Y-120142912D01*
X127817880Y-120198043D01*
X127584490Y-120198043D01*
X127251218Y-119864771D01*
X127251217Y-119864771D01*
X127242547Y-119878571D01*
X127242542Y-119878581D01*
X127183002Y-120048738D01*
X127183001Y-120048741D01*
X127162818Y-120227877D01*
X119368380Y-120227877D01*
X119368380Y-119511217D01*
X127604771Y-119511217D01*
X127604771Y-119511218D01*
X127967878Y-119874326D01*
X127967879Y-119874326D01*
X128243748Y-119598457D01*
X128314326Y-119527878D01*
X128284491Y-119498043D01*
X128517880Y-119498043D01*
X128517880Y-119557717D01*
X128540716Y-119612848D01*
X128582912Y-119655044D01*
X128638043Y-119677880D01*
X128697717Y-119677880D01*
X128752848Y-119655044D01*
X128795044Y-119612848D01*
X128817880Y-119557717D01*
X128817880Y-119527880D01*
X129021433Y-119527880D01*
X129355380Y-119861826D01*
X129355381Y-119861826D01*
X129701826Y-119515379D01*
X129701826Y-119515378D01*
X129684491Y-119498043D01*
X129917880Y-119498043D01*
X129917880Y-119557717D01*
X129940716Y-119612848D01*
X129982912Y-119655044D01*
X130038043Y-119677880D01*
X130097717Y-119677880D01*
X130152848Y-119655044D01*
X130195044Y-119612848D01*
X130217880Y-119557717D01*
X130217880Y-119527878D01*
X130421433Y-119527878D01*
X130421433Y-119527879D01*
X130767880Y-119874326D01*
X130767881Y-119874326D01*
X131130987Y-119511218D01*
X131117181Y-119502543D01*
X130947022Y-119443001D01*
X130946226Y-119442820D01*
X130945763Y-119442561D01*
X130940450Y-119440702D01*
X130940775Y-119439770D01*
X130885250Y-119408707D01*
X130855929Y-119355005D01*
X130855057Y-119355311D01*
X130853201Y-119350008D01*
X130852937Y-119349524D01*
X130852758Y-119348742D01*
X130793213Y-119178572D01*
X130784541Y-119164772D01*
X130784540Y-119164772D01*
X130421433Y-119527878D01*
X130217880Y-119527878D01*
X130217880Y-119498043D01*
X130195044Y-119442912D01*
X130152848Y-119400716D01*
X130097717Y-119377880D01*
X130038043Y-119377880D01*
X129982912Y-119400716D01*
X129940716Y-119442912D01*
X129917880Y-119498043D01*
X129684491Y-119498043D01*
X129367880Y-119181433D01*
X129021433Y-119527880D01*
X128817880Y-119527880D01*
X128817880Y-119498043D01*
X128795044Y-119442912D01*
X128752848Y-119400716D01*
X128697717Y-119377880D01*
X128638043Y-119377880D01*
X128582912Y-119400716D01*
X128540716Y-119442912D01*
X128517880Y-119498043D01*
X128284491Y-119498043D01*
X127951218Y-119164771D01*
X127951217Y-119164771D01*
X127942547Y-119178571D01*
X127942542Y-119178581D01*
X127882999Y-119348746D01*
X127882819Y-119349536D01*
X127882562Y-119349993D01*
X127880703Y-119355309D01*
X127879771Y-119354983D01*
X127848704Y-119410511D01*
X127795004Y-119439832D01*
X127795309Y-119440703D01*
X127790025Y-119442551D01*
X127789536Y-119442819D01*
X127788746Y-119442999D01*
X127618581Y-119502542D01*
X127618571Y-119502547D01*
X127604771Y-119511217D01*
X119368380Y-119511217D01*
X119368380Y-118811217D01*
X128304771Y-118811217D01*
X128304771Y-118811218D01*
X128667880Y-119174326D01*
X128667881Y-119174326D01*
X129030987Y-118811218D01*
X129030985Y-118811217D01*
X129704771Y-118811217D01*
X129704771Y-118811218D01*
X130067880Y-119174326D01*
X130067881Y-119174326D01*
X130430987Y-118811218D01*
X130417184Y-118802545D01*
X130247018Y-118743001D01*
X130067883Y-118722818D01*
X130067877Y-118722818D01*
X129888741Y-118743001D01*
X129888738Y-118743002D01*
X129718581Y-118802542D01*
X129718571Y-118802547D01*
X129704771Y-118811217D01*
X129030985Y-118811217D01*
X129017184Y-118802545D01*
X128847018Y-118743001D01*
X128667883Y-118722818D01*
X128667877Y-118722818D01*
X128488741Y-118743001D01*
X128488738Y-118743002D01*
X128318581Y-118802542D01*
X128318571Y-118802547D01*
X128304771Y-118811217D01*
X119368380Y-118811217D01*
X119368380Y-112031880D01*
X119388065Y-111964841D01*
X119440869Y-111919086D01*
X119492380Y-111907880D01*
X142243380Y-111907880D01*
X142310419Y-111927565D01*
G37*
%TD.AperFunction*%
%TD*%
M02*
